<svg xmlns="http://www.w3.org/2000/svg" viewBox="0 0 64 64">
  <defs>
    <linearGradient id="mint" x1="0" y1="0" x2="1" y2="1">
      <stop offset="0%" stop-color="#43e4c3" />
      <stop offset="100%" stop-color="#23bfa9" />
    </linearGradient>
    <linearGradient id="mintSoft" x1="0" y1="0" x2="1" y2="1">
      <stop offset="0%" stop-color="#97f4e2" />
      <stop offset="100%" stop-color="#58d8c1" />
    </linearGradient>
  </defs>
  <rect x="4" y="4" width="56" height="56" rx="15" fill="#f6fffc" />
  <rect x="6.5" y="6.5" width="51" height="51" rx="13" fill="url(#mint)" opacity="0.18" />
  <path d="M39.7 15.8c-7-3.8-16.1-1.8-20.5 4.7-4.4 6.3-2.8 14.9 3.7 19.5l6.3 4.4c2.3 1.6 1.8 5.1-.9 6l-8.1 2.9 1.8 5 8.3-2.9c7.1-2.5 8.3-11.9 2.1-16.2l-6.2-4.4c-3.9-2.8-4.9-8-2.4-11.8 2.7-3.9 8-5.1 12.2-2.8l3.7 2-0.1-6.4z" fill="#ffffff" />
  <path d="M38.8 36.8h11.4v3.1H38.8zM38.8 41.4h11.4v3.1H38.8zM38.8 46h7.8v3.1h-7.8z" fill="url(#mintSoft)" />
</svg>
